<svg xmlns="http://www.w3.org/2000/svg" width="577" height="433" viewBox="0 0 577 433" version="1.1"><path d="M 263.638 126.500 C 263.274 128.150, 261.204 140.300, 259.039 153.500 C 256.874 166.700, 254.425 181.307, 253.596 185.961 C 252.767 190.614, 252.236 194.569, 252.417 194.750 C 252.597 194.930, 255.212 190.673, 258.227 185.289 C 263.395 176.061, 263.833 174.726, 265.876 162 C 267.963 148.996, 267.985 148.078, 266.473 137 C 264.573 123.084, 264.473 122.715, 263.638 126.500 M 298.282 149.403 C 282.212 163.206, 268.487 175.091, 267.782 175.814 C 266.720 176.903, 278.019 173.207, 288 169.201 C 289.375 168.649, 295.538 163.866, 301.695 158.572 C 311.702 149.969, 313.701 147.667, 320.529 136.890 C 324.730 130.259, 328.017 124.715, 327.833 124.569 C 327.650 124.424, 314.352 135.599, 298.282 149.403 M 217.996 165.020 C 219.838 168.498, 234.314 193.176, 242.916 207.500 C 247.613 215.322, 249.939 218.456, 249.598 216.500 C 249.311 214.850, 248.560 210.575, 247.930 207 C 247.091 202.242, 245.153 197.609, 240.702 189.717 C 235.538 180.560, 233.269 177.698, 225.652 170.737 C 220.658 166.172, 217.265 163.639, 217.996 165.020 M 327 165 C 328.823 166.178, 334.759 166.178, 337.500 165 C 338.879 164.407, 337.328 164.124, 332.500 164.086 C 327.632 164.047, 325.957 164.326, 327 165 M 345.276 200.500 C 347.178 204.099, 352.655 208.550, 357.772 210.653 C 362.031 212.404, 361.730 212.032, 353.499 205.362 C 342.694 196.608, 343.458 197.059, 345.276 200.500 M 211.083 223.348 C 212.115 224.210, 261.187 241.146, 261.563 240.770 C 261.796 240.538, 259.177 238.106, 255.743 235.367 C 251.122 231.681, 246.817 229.427, 239.175 226.693 C 230.146 223.463, 227.709 223, 219.758 223 C 214.758 223, 210.854 223.157, 211.083 223.348 M 337.494 231.334 C 336.252 236.008, 337.860 246.789, 340.606 252.210 C 341.997 254.954, 343.281 257.042, 343.459 256.849 C 343.778 256.507, 339.344 231.467, 338.616 229.500 C 338.413 228.950, 337.908 229.775, 337.494 231.334 M 309.304 253.832 C 303.883 258.572, 298.414 268.125, 296.553 276.104 C 295.743 279.575, 295.242 282.576, 295.440 282.773 C 295.773 283.106, 300.956 274.259, 310.192 257.593 C 312.298 253.795, 313.903 250.569, 313.759 250.426 C 313.615 250.282, 311.610 251.815, 309.304 253.832 M 262.500 258.315 C 255.395 261.185, 242.301 269.635, 243.344 270.678 C 243.731 271.064, 284.081 256.252, 284.915 255.418 C 285.145 255.188, 281.996 255.019, 277.917 255.042 C 271.939 255.076, 268.948 255.711, 262.500 258.315" stroke="none" fill="#20dcf4" fill-rule="evenodd"/><path d="M 292.343 127.979 C 279.607 138.910, 268.989 147.656, 268.747 147.414 C 267.917 146.584, 263.989 173.498, 264.611 175.750 C 265.290 178.205, 266.673 178.564, 269 176.890 C 270.216 176.016, 270.121 175.933, 268.500 176.455 C 266.771 177.011, 266.839 176.769, 269 174.671 C 273.579 170.224, 328 123.970, 328 124.525 C 328 124.825, 327.272 126.292, 326.381 127.785 C 324.763 130.500, 324.763 130.500, 326.865 128 C 330.540 123.629, 330.466 122.232, 326.324 117.702 C 324.212 115.391, 321.522 112.263, 320.348 110.750 C 319.173 109.237, 317.602 108.023, 316.856 108.052 C 316.110 108.081, 305.080 117.048, 292.343 127.979 M 246.533 119.141 C 245.687 121.497, 238 168.986, 238.007 171.808 C 238.017 175.126, 250.269 196.952, 252.143 196.988 C 252.497 196.994, 253.054 196.302, 253.382 195.448 C 253.755 194.476, 253.568 194.149, 252.882 194.573 C 252.136 195.034, 251.986 194.333, 252.411 192.375 C 253.186 188.809, 253.891 184.667, 258.941 154 C 261.160 140.525, 263.297 128.150, 263.689 126.500 C 264.402 123.500, 264.402 123.500, 265.069 127 C 265.640 129.995, 265.756 130.112, 265.868 127.815 C 266.146 122.147, 264.591 120.333, 258.828 119.604 C 255.897 119.234, 252.042 118.672, 250.261 118.356 C 248.022 117.959, 246.870 118.201, 246.533 119.141 M 315.486 144.750 C 314.526 146.262, 312.562 148.850, 311.121 150.500 C 308.500 153.500, 308.500 153.500, 311.508 150.795 C 314.277 148.304, 318.695 142, 317.672 142 C 317.429 142, 316.445 143.238, 315.486 144.750 M 328.185 160.564 C 324.546 162.094, 323.298 163.941, 325.122 165.096 C 327.070 166.330, 328.819 166.187, 327 164.943 C 325.930 164.211, 327.793 163.997, 333.500 164.197 C 341.121 164.464, 341.515 164.371, 341.820 162.239 C 342.046 160.650, 341.610 159.970, 340.320 159.896 C 339.319 159.838, 336.842 159.687, 334.814 159.559 C 332.787 159.431, 329.804 159.884, 328.185 160.564 M 209.214 164.948 C 205.771 167.018, 202.721 168.946, 202.436 169.231 C 202.151 169.516, 207.584 179.429, 214.509 191.260 C 227.100 212.771, 227.100 212.771, 237.300 216.353 C 250.200 220.884, 250.322 220.904, 250.673 218.500 C 250.833 217.400, 250.694 217.111, 250.363 217.857 C 249.778 219.178, 246.849 214.519, 227.510 181.500 C 215.885 161.653, 215.902 161.697, 222.131 167.500 C 227.499 172.500, 227.499 172.500, 222.999 167.673 C 216.477 160.676, 216.356 160.652, 209.214 164.948 M 231.955 176.500 C 234.367 179.250, 236.550 181.725, 236.806 182 C 237.062 182.275, 236.797 181.600, 236.218 180.500 C 235.638 179.400, 233.455 176.925, 231.367 175 C 227.758 171.673, 227.787 171.748, 231.955 176.500 M 255.500 190 C 254.647 191.650, 254.174 193, 254.449 193 C 254.724 193, 255.647 191.650, 256.500 190 C 257.353 188.350, 257.826 187, 257.551 187 C 257.276 187, 256.353 188.350, 255.500 190 M 343 197.441 C 343 198.234, 343.520 199.203, 344.155 199.595 C 344.938 200.080, 345.037 199.858, 344.463 198.905 C 343.494 197.298, 343.932 197.611, 353.499 205.362 C 361.538 211.876, 361.885 212.232, 359.500 211.528 C 357.918 211.061, 357.970 211.186, 359.752 212.123 C 361.622 213.107, 362.348 212.995, 364.039 211.465 C 365.158 210.452, 365.945 209.045, 365.787 208.338 C 365.629 207.632, 362.575 204.573, 359 201.541 C 353.119 196.553, 352.048 196.026, 347.750 196.014 C 344.274 196.004, 343 196.387, 343 197.441 M 206.017 226.250 C 202.241 234.830, 202.320 235.579, 207.172 237.247 C 209.552 238.065, 218.833 241.318, 227.795 244.476 C 244.091 250.217, 244.091 250.217, 254.045 246.483 C 259.520 244.429, 264 242.411, 264 241.997 C 264 241.583, 263.239 240.627, 262.308 239.872 C 261.158 238.940, 260.857 238.901, 261.367 239.750 C 261.780 240.438, 261.785 241, 261.379 241 C 260.972 241, 249.467 237.063, 235.813 232.250 C 210.986 223.500, 210.986 223.500, 217.743 222.927 C 224.500 222.353, 224.500 222.353, 216.194 222.177 C 207.888 222, 207.888 222, 206.017 226.250 M 337.015 228.750 C 337.027 230.893, 337.245 231.169, 338 230 C 338.533 229.175, 338.976 228.976, 338.985 229.557 C 339.003 230.790, 342.703 251.399, 343.523 254.834 C 343.904 256.428, 343.719 256.944, 342.940 256.463 C 342.125 255.959, 342.140 256.393, 342.992 257.986 C 343.961 259.795, 344.754 260.099, 347.217 259.607 C 348.885 259.273, 350.644 259, 351.125 259 C 351.606 259, 351.996 257.988, 351.991 256.750 C 351.980 254.220, 348.466 236.316, 347.525 234 C 346.918 232.504, 338.891 226, 337.652 226 C 337.293 226, 337.007 227.238, 337.015 228.750 M 336.252 236.500 C 336.263 238.700, 336.468 239.482, 336.707 238.238 C 336.946 236.994, 336.937 235.194, 336.687 234.238 C 336.437 233.282, 336.241 234.300, 336.252 236.500 M 311.437 251.246 C 308.612 254.369, 308.605 254.400, 311.250 252.072 C 312.762 250.741, 314 249.892, 314 250.187 C 314 250.482, 312.282 253.823, 310.182 257.612 C 299.934 276.103, 295.792 283, 294.936 283 C 294.421 283, 294 283.631, 294 284.401 C 294 285.899, 300.209 290, 302.476 290 C 303.225 290, 305.975 286.063, 308.587 281.250 C 311.199 276.438, 314.385 270.821, 315.668 268.770 C 316.950 266.718, 318 263.820, 318 262.330 C 318 258.682, 315.754 248, 314.987 248 C 314.650 248, 313.052 249.461, 311.437 251.246 M 278 254.930 C 285.500 255.500, 285.500 255.500, 265.500 262.918 C 254.500 266.998, 244.825 270.570, 244 270.856 C 242.685 271.310, 242.678 271.135, 243.939 269.437 C 244.732 268.370, 244.165 268.639, 242.677 270.035 C 239.975 272.570, 239.975 272.570, 241.620 277.535 C 242.525 280.266, 243.560 282.831, 243.919 283.236 C 244.484 283.873, 273.378 273.474, 278.177 270.905 C 279.134 270.393, 281.483 267.168, 283.399 263.737 C 289.225 253.301, 289.509 253.974, 279.357 254.180 C 270.500 254.360, 270.500 254.360, 278 254.930 M 305.807 255.750 C 304.045 257.802, 302.724 260, 303.253 260 C 303.457 260, 304.622 258.650, 305.842 257 C 308.252 253.740, 308.230 252.929, 305.807 255.750" stroke="none" fill="#2b488b" fill-rule="evenodd"/></svg>