<svg xmlns="http://www.w3.org/2000/svg" width="64" height="64" viewBox="0 0 64 64" version="1.1"><path d="M 29.389 41.430 C 28.393 44.025, 29.788 46.169, 32.246 45.820 C 35.450 45.365, 35.450 40.635, 32.246 40.180 C 30.893 39.988, 29.750 40.488, 29.389 41.430 M 22 46.077 C 22 46.669, 23.315 48.469, 24.923 50.077 C 28.190 53.343, 34.128 54.089, 37.462 51.652 C 40.376 49.520, 38.512 47.898, 35.103 49.599 C 31.697 51.297, 27.778 50.219, 25.791 47.037 C 24.444 44.881, 22 44.262, 22 46.077 M 39.286 46.714 C 40.905 48.333, 41.095 48.333, 42.714 46.714 C 44.333 45.095, 44.238 45, 41 45 C 37.762 45, 37.667 45.095, 39.286 46.714" stroke="none" fill="#cf5cfc" fill-rule="evenodd"/><path d="M 31.532 13.268 C 28.625 16.175, 27.760 16.495, 23.683 16.171 C 19.831 15.865, 18.696 16.213, 16.551 18.358 C 14.776 20.133, 14 21.987, 14 24.455 C 14 27.220, 13.599 28, 12.174 28 C 6.639 28, 3.929 37.706, 8.314 41.826 C 10.676 44.044, 17 44.899, 17 43 C 17 42.450, 16.080 42, 14.955 42 C 12.800 42, 8 37.859, 8 36 C 8 33.948, 12.906 30, 15.455 30 C 18.053 30, 18.966 28.489, 16.803 27.768 C 14.691 27.064, 17.236 20.661, 20.194 19.240 C 23.627 17.589, 27.704 19.092, 28.993 22.482 C 30.387 26.149, 32.394 25.720, 31.634 21.918 C 30.821 17.856, 32.392 15.152, 36.580 13.402 C 41.338 11.414, 46.491 13.537, 48.484 18.306 C 50.059 22.076, 49.498 26, 47.383 26 C 44.580 26, 46.114 27.675, 49.740 28.574 C 57.174 30.415, 57.527 39.275, 50.250 41.359 C 46.154 42.531, 46.041 44, 50.045 44 C 57.706 44, 60.941 33.550, 55 28 C 52.588 25.747, 52 24.375, 52 20.999 C 52 17.557, 51.387 16.187, 48.600 13.400 C 45.605 10.405, 44.580 10, 40 10 C 35.461 10, 34.385 10.415, 31.532 13.268 M 40 14.533 C 40 15.229, 46.771 22, 47.467 22 C 48.919 22, 47.723 18.088, 45.686 16.174 C 43.604 14.219, 40 13.179, 40 14.533 M 40.171 19.648 C 40.364 20.654, 41.346 21.636, 42.352 21.829 C 43.673 22.084, 44.084 21.673, 43.829 20.352 C 43.636 19.346, 42.654 18.364, 41.648 18.171 C 40.327 17.916, 39.916 18.327, 40.171 19.648 M 19.200 21.200 C 17.710 22.690, 17.632 25, 19.071 25 C 20.456 25, 23 22.456, 23 21.071 C 23 19.632, 20.690 19.710, 19.200 21.200 M 26.138 34.616 C 22.808 36.948, 24.902 38.394, 28.796 36.452 C 31.480 35.113, 32.369 35.073, 34.639 36.186 C 37.965 37.819, 40.075 41.048, 38.250 41.712 C 37.563 41.962, 37 42.804, 37 43.583 C 37 44.569, 38.216 45, 41 45 C 43.889 45, 45 44.583, 45 43.500 C 45 42.675, 44.325 42, 43.500 42 C 42.675 42, 42 41.290, 42 40.423 C 42 39.556, 40.685 37.531, 39.077 35.923 C 35.679 32.525, 29.950 31.946, 26.138 34.616 M 20.655 39.829 C 18.363 42.361, 18.584 43.679, 21.421 44.391 C 26.427 45.647, 28.667 42.819, 25.171 39.655 C 22.884 37.585, 22.679 37.592, 20.655 39.829" stroke="none" fill="#6d4afc" fill-rule="evenodd"/></svg>